<svg width="34" height="34" viewBox="0 0 34 34" fill="none" xmlns="http://www.w3.org/2000/svg">
<path d="M2 0.5C1.17157 0.5 0.5 1.17157 0.5 2C0.5 2.82843 1.17157 3.5 2 3.5V0.5ZM5.58209 2L7.03092 1.61155C6.85512 0.955883 6.26091 0.5 5.58209 0.5V2ZM11.403 23.7105L9.95416 24.0989C10.1483 24.823 10.8472 25.2926 11.5909 25.1987L11.403 23.7105ZM29.3134 21.449L29.5013 22.9371C30.1387 22.8567 30.654 22.3793 30.7829 21.7499L29.3134 21.449ZM32 8.33222L33.4695 8.6332C33.5599 8.19176 33.4471 7.73306 33.1622 7.38393C32.8773 7.03479 32.4506 6.83222 32 6.83222V8.33222ZM7.27985 8.33222L5.83102 8.72067L7.27985 8.33222ZM2 3.5H5.58209V0.5H2V3.5ZM11.5909 25.1987L29.5013 22.9371L29.1255 19.9608L11.2151 22.2223L11.5909 25.1987ZM30.7829 21.7499L33.4695 8.6332L30.5305 8.03124L27.8439 21.148L30.7829 21.7499ZM4.13326 2.38845L5.83102 8.72067L8.72868 7.94377L7.03092 1.61155L4.13326 2.38845ZM5.83102 8.72067L9.95416 24.0989L12.8518 23.322L8.72868 7.94377L5.83102 8.72067ZM32 6.83222H7.27985V9.83222H32V6.83222ZM15.5 29.6325C15.5 30.1259 15.108 30.5 14.6563 30.5V33.5C16.7933 33.5 18.5 31.7542 18.5 29.6325H15.5ZM14.6563 30.5C14.2045 30.5 13.8125 30.1259 13.8125 29.6325H10.8125C10.8125 31.7542 12.5192 33.5 14.6563 33.5V30.5ZM13.8125 29.6325C13.8125 29.1391 14.2045 28.765 14.6563 28.765V25.765C12.5192 25.765 10.8125 27.5108 10.8125 29.6325H13.8125ZM14.6563 28.765C15.108 28.765 15.5 29.1391 15.5 29.6325H18.5C18.5 27.5108 16.7933 25.765 14.6563 25.765V28.765ZM28 29.6325C28 30.1259 27.608 30.5 27.1563 30.5V33.5C29.2933 33.5 31 31.7542 31 29.6325H28ZM27.1563 30.5C26.7045 30.5 26.3125 30.1259 26.3125 29.6325H23.3125C23.3125 31.7542 25.0192 33.5 27.1563 33.5V30.5ZM26.3125 29.6325C26.3125 29.1391 26.7045 28.765 27.1563 28.765V25.765C25.0192 25.765 23.3125 27.5108 23.3125 29.6325H26.3125ZM27.1563 28.765C27.608 28.765 28 29.1391 28 29.6325H31C31 27.5108 29.2933 25.765 27.1563 25.765V28.765Z" fill="#292929"/>
</svg>
