<svg width="426" height="71" viewBox="0 0 426 71" fill="none" xmlns="http://www.w3.org/2000/svg">
<g filter="url(#filter0_i_14_49)">
<path d="M25.3589 70.152C20.4309 70.152 15.8229 69.48 11.5349 68.136C7.24688 66.792 3.66287 64.872 0.782875 62.376L8.27088 50.952C10.4469 52.872 13.1029 54.376 16.2389 55.464C19.4389 56.552 22.8309 57.096 26.4149 57.096C29.4869 57.096 32.0789 56.712 34.1909 55.944C36.3669 55.176 37.9989 54.056 39.0869 52.584C40.2389 51.112 40.8149 49.384 40.8149 47.4C40.8149 44.968 39.8869 43.176 38.0309 42.024C36.2389 40.808 33.4869 40.2 29.7749 40.2H22.6709L24.6869 29.928L47.3429 8.712L48.3989 14.28H12.9749L15.5669 1.8H62.6069L60.6869 11.88L38.0309 33.096L30.7349 28.68H34.1909C38.8629 28.68 42.8629 29.416 46.1909 30.888C49.5189 32.296 52.0789 34.344 53.8709 37.032C55.6629 39.656 56.5589 42.792 56.5589 46.44C56.5589 50.984 55.2149 55.048 52.5269 58.632C49.9029 62.216 46.2229 65.032 41.4869 67.08C36.8149 69.128 31.4389 70.152 25.3589 70.152ZM81.7026 70.152C76.7746 70.152 72.1666 69.48 67.8786 68.136C63.5906 66.792 60.0066 64.872 57.1266 62.376L64.6146 50.952C66.7906 52.872 69.4466 54.376 72.5826 55.464C75.7826 56.552 79.1746 57.096 82.7586 57.096C85.8306 57.096 88.4226 56.712 90.5346 55.944C92.7106 55.176 94.3426 54.056 95.4306 52.584C96.5826 51.112 97.1586 49.384 97.1586 47.4C97.1586 44.968 96.2306 43.176 94.3746 42.024C92.5826 40.808 89.8306 40.2 86.1186 40.2H79.0146L81.0306 29.928L103.687 8.712L104.743 14.28H69.3186L71.9106 1.8H118.951L117.031 11.88L94.3746 33.096L87.0786 28.68H90.5346C95.2066 28.68 99.2066 29.416 102.535 30.888C105.863 32.296 108.423 34.344 110.215 37.032C112.007 39.656 112.903 42.792 112.903 46.44C112.903 50.984 111.559 55.048 108.871 58.632C106.247 62.216 102.567 65.032 97.8306 67.08C93.1586 69.128 87.7826 70.152 81.7026 70.152Z" fill="#586D91"/>
<path d="M119.987 69L133.427 1.8H146.099L165.203 49.416L158.483 49.32L195.731 1.8H209.075L195.731 69H181.139L190.067 23.976H193.043L163.379 61.896H156.467L140.627 23.88L143.507 24.168L134.579 69H119.987ZM211.675 69L225.115 1.8H240.763L227.323 69H211.675ZM243.175 69L256.615 1.8H272.263L261.319 56.328H295.015L292.423 69H243.175ZM323.48 28.872H355.832L353.432 40.968H321.08L323.48 28.872ZM319.064 56.52H355.736L353.144 69H301.112L314.552 1.8H365.336L362.744 14.28H327.512L319.064 56.52ZM388.942 70.152C385.294 70.152 381.742 69.8 378.286 69.096C374.894 68.456 371.79 67.56 368.974 66.408C366.222 65.256 363.886 64.008 361.966 62.664L368.302 50.664C370.414 52.136 372.654 53.416 375.022 54.504C377.454 55.528 379.982 56.328 382.606 56.904C385.23 57.416 387.854 57.672 390.478 57.672C393.358 57.672 395.822 57.352 397.87 56.712C399.982 56.072 401.582 55.176 402.67 54.024C403.822 52.872 404.398 51.464 404.398 49.8C404.398 48.264 403.79 47.016 402.574 46.056C401.358 45.096 399.758 44.296 397.774 43.656C395.854 42.952 393.71 42.28 391.342 41.64C388.974 41 386.574 40.264 384.142 39.432C381.774 38.536 379.598 37.448 377.614 36.168C375.694 34.824 374.126 33.128 372.91 31.08C371.694 29.032 371.086 26.472 371.086 23.4C371.086 18.792 372.334 14.792 374.83 11.4C377.39 8.008 380.974 5.384 385.582 3.528C390.19 1.608 395.598 0.647999 401.806 0.647999C406.35 0.647999 410.638 1.16 414.67 2.184C418.702 3.144 422.158 4.552 425.038 6.408L419.182 18.312C416.622 16.584 413.774 15.304 410.638 14.472C407.502 13.576 404.27 13.128 400.942 13.128C397.934 13.128 395.342 13.48 393.166 14.184C391.054 14.888 389.422 15.88 388.27 17.16C387.182 18.376 386.638 19.784 386.638 21.384C386.638 22.984 387.214 24.296 388.366 25.32C389.582 26.28 391.182 27.112 393.166 27.816C395.15 28.456 397.326 29.096 399.694 29.736C402.062 30.376 404.43 31.112 406.798 31.944C409.166 32.776 411.342 33.832 413.326 35.112C415.31 36.392 416.91 38.024 418.126 40.008C419.342 41.928 419.95 44.36 419.95 47.304C419.95 51.912 418.67 55.944 416.11 59.4C413.55 62.792 409.934 65.448 405.262 67.368C400.654 69.224 395.214 70.152 388.942 70.152Z" fill="#1D242C"/>
</g>
<defs>
<filter id="filter0_i_14_49" x="0.782959" y="0.64801" width="424.255" height="73.504" filterUnits="userSpaceOnUse" color-interpolation-filters="sRGB">
<feFlood flood-opacity="0" result="BackgroundImageFix"/>
<feBlend mode="normal" in="SourceGraphic" in2="BackgroundImageFix" result="shape"/>
<feColorMatrix in="SourceAlpha" type="matrix" values="0 0 0 0 0 0 0 0 0 0 0 0 0 0 0 0 0 0 127 0" result="hardAlpha"/>
<feOffset dy="4"/>
<feGaussianBlur stdDeviation="2"/>
<feComposite in2="hardAlpha" operator="arithmetic" k2="-1" k3="1"/>
<feColorMatrix type="matrix" values="0 0 0 0 0 0 0 0 0 0 0 0 0 0 0 0 0 0 0.25 0"/>
<feBlend mode="normal" in2="shape" result="effect1_innerShadow_14_49"/>
</filter>
</defs>
</svg>
