<svg width="38" height="38" viewBox="0 0 38 38" fill="none" xmlns="http://www.w3.org/2000/svg">
<path d="M15.0665 1.23947C17.961 2.80548 18.3618 3.03556 19.2598 3.70353C20.143 4.35666 21.568 5.73713 22.2137 6.55353C24.0469 8.87658 25.3532 11.9344 25.6501 14.5988C25.6723 14.8586 25.7317 15.0664 25.7688 15.0664C25.8059 15.0664 26.9192 14.7473 28.2403 14.3613C29.5688 13.9754 30.6821 13.6563 30.7118 13.6563C30.8009 13.6563 31.7063 15.8531 32.1294 17.0926C33.0794 19.8906 33.5469 22.7406 33.4505 25.1602C33.302 28.7598 31.8176 31.9957 29.1903 34.4301C27.268 36.2113 24.9598 37.3543 22.3028 37.8219C21.4122 37.9852 17.8348 38.052 16.677 37.9332C13.3669 37.5918 10.5466 36.2039 8.23835 33.7918C7.29577 32.8121 6.63523 31.8695 6.01179 30.6152C4.95788 28.5 4.53483 26.5332 4.6239 24.1953C4.75007 21.0856 5.73718 18.5324 7.65944 16.3281C7.96374 15.9793 8.69108 15.2668 9.26999 14.7399C10.8508 13.3 11.6079 12.3277 12.3204 10.8063C13.0106 9.34415 13.2778 8.18634 13.3298 6.41994C13.3669 5.27697 13.3446 4.9133 13.0774 2.59767C12.9141 1.18752 12.788 0.0297012 12.788 0.0222816C12.7954 0.0148582 13.8196 0.564079 15.0665 1.23947ZM15.5489 5.87814C15.5489 7.94884 15.4524 8.68361 14.9848 10.1531C14.1981 12.5949 13.2704 13.9828 10.8434 16.3207C8.67624 18.4063 7.98601 19.3711 7.39226 21.1524C6.97663 22.3844 6.87272 23.134 6.87272 24.752C6.87272 25.9172 6.90241 26.2883 7.03601 26.882C7.67429 29.7617 9.22546 32.1145 11.5856 33.7695C11.8231 33.9402 12.0235 34.059 12.0235 34.0293C12.0235 34.007 11.9567 33.8586 11.8751 33.6953C11.7934 33.5395 11.6376 33.1164 11.5262 32.7527C11.3407 32.1516 11.3258 31.9957 11.3258 30.8008C11.3184 29.6652 11.3407 29.4277 11.4891 28.9231C11.8899 27.5277 12.3204 26.8524 13.7008 25.4793C14.6657 24.5145 14.7919 24.366 15.1036 23.7277C15.3633 23.2008 15.4747 22.8668 15.5712 22.3176C15.6899 21.5977 15.6899 21.5754 15.4673 19.5344C15.3411 18.4063 15.2372 17.4711 15.2446 17.4637C15.2669 17.434 18.8294 19.4008 19.2301 19.668C19.8313 20.0762 21.0337 21.2711 21.4344 21.8649C22.043 22.7703 22.6294 24.1285 22.7555 24.9227C22.7852 25.0934 22.8446 25.2344 22.8891 25.2344C22.9337 25.2344 23.468 25.0859 24.0841 24.9078L25.1973 24.5813L25.368 24.9672C26.8969 28.3145 27.2087 31.3945 26.2364 33.584C26.1399 33.8067 26.0805 33.9922 26.1028 33.9922C26.2587 33.9922 27.2606 33.1609 27.9805 32.441C29.2794 31.1348 30.1255 29.784 30.6747 28.1215C31.1126 26.8078 31.2091 26.1399 31.2016 24.4551C31.1942 22.7109 31.0309 21.4715 30.5782 19.7125C30.3036 18.6289 29.6059 16.5063 29.4872 16.3949C29.4501 16.3652 28.129 16.7215 26.5333 17.1817C24.945 17.6492 23.6313 18.0203 23.6165 18.0055C23.6091 17.9906 23.5645 17.2856 23.5274 16.432C23.4532 14.6508 23.2973 13.7156 22.852 12.3649C21.7313 8.9508 19.4528 6.21955 16.2169 4.39376C15.8458 4.18595 15.5489 4.01525 15.5489 4.01525C15.5489 4.00783 15.5489 4.85392 15.5489 5.87814ZM17.627 23.3789C17.2856 24.7149 16.6399 25.7317 15.3782 26.9488C13.9755 28.2996 13.5969 29.0195 13.5301 30.5113C13.5005 31.0977 13.5227 31.4539 13.6192 31.8695C13.9903 33.5543 15.2891 34.9719 16.9665 35.5211C17.6048 35.7289 17.679 35.7363 19.0372 35.7363C20.6403 35.7363 20.9149 35.6844 21.9317 35.1574C22.6219 34.8012 23.4903 33.9774 23.8837 33.3094C24.6926 31.9438 24.7743 30.2293 24.1434 27.9953C24.0395 27.6242 23.9134 27.3125 23.8688 27.3125C23.8243 27.3125 23.1192 27.5129 22.3028 27.7504C21.4864 27.9953 20.811 28.1883 20.8036 28.1809C20.7962 28.1734 20.7591 27.5797 20.7145 26.8672C20.67 26.1547 20.5809 25.368 20.5216 25.1231C20.2024 23.9356 19.3044 22.5551 18.3915 21.8277L17.9239 21.4641L17.8348 22.1766C17.7903 22.5774 17.6938 23.1117 17.627 23.3789Z" fill="#292929"/>
</svg>
