<svg width="24" height="29" viewBox="0 0 24 29" fill="none" xmlns="http://www.w3.org/2000/svg">
<path d="M17.5465 7.52001C17.5465 10.5686 15.0633 13.04 12 13.04C8.93675 13.04 6.4535 10.5686 6.4535 7.52001C6.4535 4.4714 8.93675 2.00001 12 2.00001C15.0633 2.00001 17.5465 4.4714 17.5465 7.52001Z" stroke="#292929" stroke-width="3" stroke-linecap="round"/>
<path d="M2 27.04C2.00011 23.04 1.99992 17.04 12 17.04C22.0001 17.04 22 23.54 22 27.04H2Z" stroke="#292929" stroke-width="3" stroke-linecap="round"/>
<path d="M2 26.9996C2.00011 22.9996 2.00028 17 12 17C22 17 22 23.4999 22 26.9999V27H2V26.9996Z" stroke="#292929" stroke-width="3" stroke-linecap="round"/>
</svg>
